<svg xmlns="http://www.w3.org/2000/svg" width="1200" height="630" viewBox="0 0 1200 630">
  <defs>
    <linearGradient id="paper" x1="0" y1="0" x2="1" y2="1">
      <stop offset="0" stop-color="#ffffff"/>
      <stop offset="1" stop-color="#f3f4f6"/>
    </linearGradient>
    <radialGradient id="a" cx="18%" cy="25%" r="70%">
      <stop offset="0" stop-color="#a855f7" stop-opacity="0.20"/>
      <stop offset="1" stop-color="#a855f7" stop-opacity="0"/>
    </radialGradient>
    <radialGradient id="b" cx="82%" cy="30%" r="80%">
      <stop offset="0" stop-color="#06b6d4" stop-opacity="0.14"/>
      <stop offset="1" stop-color="#06b6d4" stop-opacity="0"/>
    </radialGradient>
    <radialGradient id="c" cx="68%" cy="88%" r="75%">
      <stop offset="0" stop-color="#f59e0b" stop-opacity="0.10"/>
      <stop offset="1" stop-color="#f59e0b" stop-opacity="0"/>
    </radialGradient>
  </defs>

  <rect width="1200" height="630" fill="url(#paper)"/>
  <rect width="1200" height="630" fill="url(#a)"/>
  <rect width="1200" height="630" fill="url(#b)"/>
  <rect width="1200" height="630" fill="url(#c)"/>

  <g opacity="0.10" stroke="#111827" stroke-width="1">
    <path d="M120 140 C 300 40, 470 80, 640 140" fill="none"/>
    <path d="M170 470 C 420 380, 720 410, 1020 330" fill="none"/>
    <path d="M720 120 C 880 200, 1010 190, 1140 120" fill="none"/>
  </g>

  <g opacity="0.16" stroke="#111827" stroke-width="1">
    <path d="M112 220 L 388 220" />
    <path d="M112 252 L 308 252" />
    <path d="M112 284 L 360 284" />
  </g>

  <g>
    <text x="120" y="365" font-family="Georgia, 'Times New Roman', ui-serif" font-size="140" font-weight="600" letter-spacing="0.06em" fill="#111827">BLOG</text>
    <text x="120" y="415" font-family="ui-monospace, SFMono-Regular, Menlo, Monaco, Consolas, 'Liberation Mono', monospace" font-size="18" font-weight="600" letter-spacing="0.22em" fill="#374151">EXPLORABLE TECH SPACE</text>
  </g>
</svg>
