<svg xmlns="http://www.w3.org/2000/svg" viewBox="0 0 1080 320">
  <path
    fill="#000"
    transform="translate(0 18) scale(3.58)"
    d="m30.12 4.1246c-2.4962 2.2387-2.5667 5.9767-3.504 9.0117-1.0194 2.0014-0.1711 8.3994-3.7689 5.9417-2.8578-0.92341-4.6216-7.4478-7.8444-4.4322-2.1191 1.873-2.2061 5.0173-0.17936 7.0975 1.3182 2.1113 8.8235 2.4483 5.7759 5.5465-4.2424 2.1643-8.5681 4.8553-10.593 9.3907-1.6904 3.1696-2.9596 7.4508-0.82341 10.72 2.7742 2.0108 6.8456 2.1738 9.9236 2.612 2.7746-0.63572 6.4599-0.06846 4.0797 3.4641-1.4228 3.6757-6.4403 1.3492-9.3533 2.8541-3.139 1.0601-8.4426 0.3581-9.2359 4.5336-0.85038 3.9467 5.0382 3.23 7.2481 1.946 2.7033-1.0468 5.79-2.549 8.6943-1.5804 2.3076 2.74-1.1212 6.5011-0.24039 9.7387 1.0478 2.4065 3.2292 6.8481 5.5565 2.8025 1.3216-1.9315 3.4618-3.5606 3.1199-6.2084 0.33073-2.5321-0.21729-5.4639 1.5009-7.5531 1.6057-0.98794 3.6829-0.43876 5.3806-1.3727 1.4958-0.61828 3.2768-0.79766 4.5419-1.8075 0.49294-2.8825-3.1348-2.4098-4.9916-2.0662-2.0738 0.36182-5.1626 0.51144-5.803-2.0229-1.61-2.8203-0.88451-6.1828 2.4728-7.083 2.8868-1.9185 6.5385-3.0237 8.3378-6.1987 1.9935-2.6804 4.342-5.6048 3.7799-9.1943 0.15209-2.8712-2.5245-4.4271-4.9901-4.9045-2.0935-0.1075-4.2271-2.1213-1.0457-3.0925 3.3763-1.7016 6.7665-3.4193 10.026-5.3213 2.9815-3.6142-1.9076-5.7223-4.6606-3.6083-1.8724 2.9454-5.2885 4.4669-8.5787 5.2627-2.2291-2.2464 0.01795-6.9546-0.76267-10.153-0.11211-2.3081-1.1094-5.1825-4.0624-4.3225zm33.734 42.438c-0.82584 5.8856-1.5834 11.805-1.9703 17.725 1.0668 4.5814 6.2886 0.11269 6.2432-2.7776 1.2687-6.2307 2.7998-12.42 3.9525-18.667 0.50404-4.2513 0.13757-8.7058 2.0456-12.667 2.5356-3.6099-2.0837-7.0453-4.7767-3.7689-2.4845 2.8247-6.654 2.691-9.7337 4.73-2.6893 1.9976-3.0725-1.3532-2.4845-3.2642 1.0426-2.4242-1.5799-6.9415-4.0852-4.297-2.1598 1.874-1.8151 5.056-3.2605 7.3887-1.9474 9.5148-3.8247 19.047-5.925 28.525-1.7836 3.256 2.0145 8.5351 4.6689 4.0139 3.1562-3.3762 3.3065-8.216 5.1773-12.241 2.282-2.5791 5.8296-3.6788 9.0416-4.6658l0.41307-0.05743zm-31.38-18.841c2.4797-0.3694 7.3723 1.9056 4.9674 4.5743-5.9144 1.2785-11.852 2.4637-17.806 3.5514-2.8294-2.0897 1.0428-4.2781 3.0339-5.1066 2.0441-1.3241 4.1095-2.7332 6.649-2.8129 1.0441-0.14925 2.0999-0.23418 3.1552-0.20619zm32.481 6.4484c4.6481 2.572 0.23825 7.5246-4.0204 8.6844-2.3685 1.3862-7.6696 2.1012-5.7341-2.2121 0.78044-3.1594 4.2952-5.0165 7.2076-5.8773 0.84432-0.21761 1.6966-0.78745 2.547-0.59496zm-31.38 1.9837c4.9819-0.84334 1.7509 5.7667-1.5843 5.2551-3.7738 1.0239-7.5546 2.7259-11.515 2.4538-3.184 0.26917-3.5374-3.0068-0.71693-3.6896 4.3333-2.1208 9.0453-3.3758 13.817-4.0193z"
  />
  <g transform="translate(292 -752.36216)">
    <path
      fill="#000"
      d="m 125.6144,1034.3293 c -0.29978,-4.2877 3.8554,-9.6181 12.81345,-16.4374 9.84335,-7.4933 27.34705,-29.08858 30.51819,-37.65198 3.49535,-5.93552 5.71758,-11.02008 6.21196,-16.92834 0.99828,-12.60298 -3.11722,-22.26727 -9.29837,-21.83509 -12.92819,-0.62031 -27.05013,-14.4801 -27.59156,-26.73325 -0.0641,-4.06988 -0.30285,-8.5453 -0.53037,-9.94535 -0.26824,-1.64986 -11.10802,-2.23248 -30.80673,-1.65575 -32.017988,0.93738 -38.733061,-0.72598 -32.389645,-8.0231 3.541946,-4.07448 18.333425,-4.55896 77.233285,-2.52975 5.13202,0.17679 22.92174,-0.006 39.53269,-0.40498 23.93545,-0.57574 30.86328,0.01 33.39009,2.82167 7.67323,8.53903 2.86753,9.51704 -46.83548,9.53146 -24.37395,0.007 -25.98025,0.27686 -26.54007,4.45783 -1.20339,8.98768 1.85349,14.36071 9.38932,16.50332 20.12289,5.72141 23.84147,8.40209 27.62107,19.91173 3.81885,11.62915 3.57841,13.5303 -4.21878,33.35797 -3.77837,9.60806 -8.52385,16.96225 -20.32828,31.50331 -16.21421,19.9729 -37.51759,33.3997 -38.17077,24.0577 z m 63.1435,-161.96485 c -7.07356,-0.48673 -29.73123,-0.33049 -50.35041,0.34719 -36.28522,1.19259 -49.696973,-0.0797 -50.023186,-4.74531 -0.311995,-4.46228 5.16268,-5.75813 29.983336,-7.097 l 25.27597,-1.36344 -0.59282,-8.47862 c -0.46982,-6.71965 -1.32009,-8.13959 -4.09844,-6.84446 -2.08459,0.97178 -6.00645,-0.53974 -9.67498,-3.7288 -7.41282,-6.44397 -9.59639,-6.42567 -21.96628,0.18431 -5.26125,2.81137 -11.005152,4.67175 -12.764235,4.13415 -5.907136,-1.80533 -3.703147,-7.17569 4.782014,-11.65203 4.628951,-2.44203 11.513461,-6.25573 15.298931,-8.4749 6.29328,-3.68935 7.44506,-3.72009 13.4503,-0.35915 3.61222,2.02164 7.73952,5.53989 9.1718,7.8183 4.03612,6.42057 6.52042,4.69522 7.04791,-4.89479 0.52596,-9.56241 -2.34294,-14.38068 -8.31399,-13.96319 -2.11025,0.14754 -5.48478,-1.71092 -7.49892,-4.12992 -4.72693,-5.67706 -7.34925,-5.35089 -19.18443,2.38614 -7.35159,4.80596 -10.464653,5.77053 -12.608568,3.90682 -5.418964,-4.7107 -3.173292,-7.98517 9.716538,-14.16808 7.12069,-3.41563 14.01302,-7.14161 15.3163,-8.27998 1.42576,-1.24538 5.19679,0.49627 9.46781,4.37276 11.13683,10.10801 17.91968,7.25225 16.91469,-7.12155 -0.54838,-7.84317 15.4801,-20.12723 28.82318,-22.08974 10.02892,-1.47508 10.26203,-1.357 10.73724,5.43957 0.45644,6.52814 -0.2863,7.18877 -12.30791,10.94739 -11.8459,3.70371 -12.93553,4.64186 -14.70855,12.664 -2.21369,10.01596 -3.13594,22.93859 -3.29946,46.23265 l -0.11608,16.53592 11.04882,0.73485 c 6.07682,0.40419 15.85567,0.43207 21.73078,0.062 11.93237,-0.75167 20.43002,3.32772 18.70304,8.97855 -1.21668,3.98104 -0.99349,3.95144 -19.9604,2.64636 z m -25.17549,-27.29888 c -2.60759,-2.72967 -1.38509,-5.10818 7.43091,-14.45747 5.8036,-6.15464 11.70398,-11.28197 13.11199,-11.39408 2.68219,-0.21356 25.19941,13.76811 28.1012,17.44891 4.58612,5.81734 -3.55412,11.42659 -9.879,6.80738 -17.63239,-12.87736 -17.84701,-12.90002 -26.27581,-2.77393 -7.05346,8.47379 -8.18883,8.87098 -12.48929,4.36919 z m 32.91092,-33.72246 c -9.10767,-7.56174 -9.59452,-7.59537 -16.73705,-1.1569 -6.57057,5.92291 -15.78419,7.23175 -16.12962,2.29132 -0.13358,-1.91053 0.7248,-3.54136 1.9075,-3.62404 1.18272,-0.0827 3.434,-1.58358 5.00282,-3.33529 1.56885,-1.75169 6.13647,-5.85556 10.1503,-9.11964 l 7.29786,-5.93471 6.45598,5.04967 c 13.28648,10.39229 17.60851,15.20423 16.60513,18.48735 -1.59133,5.2069 -6.06426,4.39003 -14.55292,-2.65776 z"
    />
  </g>
  <path
    fill="#000"
    transform="translate(612 8)"
    d="M 134.56134,279.51241 C 130.07517,230.40958 160.61499,152.83827 193.34151,110.00577 C 222.00808,72.486956 193.09045,9.1923835 140.50778,54.819548 C 194.76805,85.823805 127.35363,208.24167 109.42817,211.30931 C 86.82412,215.17761 180.99532,86.20497 123.02583,72.586291 C 98.295075,103.62821 94.966423,137.66007 69.861374,169.50376 C 65.397838,167.79094 64.404297,150.63496 68.356128,143.51167 C 86.914258,100.78016 115.94184,16.870841 173.99272,15.050535 C 238.82728,13.017512 248.04224,72.712008 216.84293,124.49966 C 185.55784,166.83941 159.77098,217.92591 147.81336,268.77952 C 144.20336,284.91519 137.9152,290.00802 134.56134,279.51241 z"
  />
  <path
    fill="#000"
    transform="translate(772 0)"
    d="m 91.886636,283.13592 c -1.97632,-4.95231 -2.138673,-9.91855 -2.155024,-65.92087 l -0.01692,-57.80691 c -13.919872,-1.4129 -23.29353,-5.94946 -26.961125,-19.24219 -1.518193,-7.31626 -6.1429,-30.25363 3.075935,-29.84006 7.635179,0.34253 7.05594,15.31058 7.230067,18.78527 0.499446,10.39311 1.007258,11.75329 5.540056,14.83909 2.446343,1.6654 4.34358,2.94316 10.747577,3.11373 0.121898,-16.75286 0.285253,-30.08567 0.448144,-48.132725 -7.686411,-0.91231 -17.073156,-4.20447 -21.7929,-9.368445 -5.618415,-6.147235 -8.334549,-15.526585 -7.852014,-26.671992 0.378114,-8.733787 2.229012,-13.670067 5.362007,-13.475753 6.633639,0.41143 6.910887,15.369585 7.61707,21.268241 1.527953,12.762792 6.873938,15.464997 16.437708,15.934317 0.615006,-19.540633 0.72914,-44.759662 5.423885,-54.323844 2.604495,-5.305903 9.964528,-9.58266 24.071948,-14.858809 8.17344,-3.056851 10.45307,-3.180103 12.60253,-0.681376 3.16929,3.684284 2.6924,4.179963 -11.89402,12.362594 -12.6643,7.104377 -13.47936,7.684574 -14.55112,10.358243 -2.30046,5.738841 -3.10685,12.469284 -3.53911,29.539097 l -0.43149,17.039088 c 6.94605,-0.834983 10.0664,-1.376203 12.32901,-5.922562 2.10521,-4.260331 3.32257,-9.247623 4.17562,-17.106819 0.52955,-4.878806 2.28996,-11.159827 4.25788,-12.273637 7.68192,-4.347826 8.4328,8.631751 8.04479,14.000011 -0.52916,7.32126 -1.86055,16.784078 -5.0999,21.602428 -5.96049,8.865888 -13.78154,11.475448 -23.42696,12.350078 -0.006,18.977425 0.0134,29.869375 -0.30112,47.666365 14.23062,-0.19167 14.80587,-7.97164 15.45168,-17.83182 0.87385,-13.34162 4.39946,-19.76194 10.89635,-17.04962 1.95967,-3.70682 -0.19493,-0.25918 4.14081,-7.345 4.46478,-7.296745 37.481,-53.065262 42.80231,-59.334443 3.97339,-4.681153 6.6244,-6.678387 10.27762,-6.29629 4.51167,0.471883 17.43018,18.861008 21.91753,24.684581 10.46247,13.57793 15.09876,19.484745 23.83727,30.556817 3.81814,4.83776 7.35491,10.994535 9.00922,16.145365 1.91861,5.97377 -4.70626,6.94951 -7.97881,4.74991 -1.2256,-0.87973 -34.40489,-45.068527 -38.9487,-51.872621 -4.22299,-6.323671 -7.53902,-9.094253 -9.83168,-8.214478 -0.52371,0.200968 -11.31204,13.946101 -23.97405,30.544739 l -23.02183,30.17935 c -1.4762,1.93515 -4.80877,0.63537 -6.04031,-0.4804 l -0.0213,6.91046 c -0.0435,14.1008 -0.61779,19.62544 -6.28276,26.87378 -5.10793,6.53559 -10.77723,9.5607 -22.14477,11.35137 l 0.17829,60.00351 c 0.12407,41.75759 0.0285,59.79399 -0.5788,61.05096 -1.696788,3.51218 -7.521442,5.80976 -9.030601,2.14133 z m 83.801524,-77.58727 c -13.8818,-3.55919 -17.60659,-12.65765 -20.11386,-24.44143 -1.3758,-6.64505 -1.28873,-57.63484 -0.91568,-63.01358 0.43277,-6.23982 3.68373,-9.00888 8.26924,-4.46261 3.99813,3.99814 3.17898,11.19257 3.08516,16.92713 -0.10136,6.19537 -0.43994,9.38447 -0.13322,14.73001 13.67452,0.32608 22.41335,0.33151 35.66803,0.11131 0.17125,-5.65057 0.0325,-9.78622 0.0398,-14.27079 0.002,-5.93441 0.33844,-11.99483 0.74736,-13.4676 1.05822,-3.81117 3.54278,-6.09422 6.33843,-5.82436 3.51428,1.17772 5.49883,3.64034 5.45873,6.43048 l -0.36722,25.55033 c -0.38354,26.68534 -1.66381,33.95744 -3.95294,45.40814 -1.80435,9.02577 -8.02663,14.05441 -15.47898,16.1479 -3.86325,1.03196 -14.40528,1.06812 -18.64484,0.17507 z m 19.70502,-13.56527 c 6.56363,-7.00793 6.51594,-19.95414 6.34871,-33.6134 -12.85904,0.009 -21.36835,0.0473 -35.52025,0.4371 0.13565,9.00466 0.0294,22.97495 4.02202,30.24146 5.07074,9.22872 21.66197,6.20515 25.14952,2.93484 z m -24.88415,-83.09562 c -6.30207,-0.80374 -10.5002,-1.9348 -11.91198,-3.20933 -1.51547,-1.36816 -1.57736,-5.24324 -0.10721,-6.713385 3.10206,-3.10206 4.03515,-3.2076 26.4916,-2.99625 20.43442,0.19232 21.59479,0.054 23.28584,1.6514 4.17435,3.943195 1.7313,7.999875 -2.23572,9.215325 -8.36629,2.56331 -24.19395,3.49703 -35.52253,2.05224 z"
  />
</svg>
