<?xml version="1.0" encoding="UTF-8"?>
<!DOCTYPE svg PUBLIC "-//W3C//DTD SVG 1.1//EN" "http://www.w3.org/Graphics/SVG/1.1/DTD/svg11.dtd">
<svg width="300" height="300" version="1.1" viewBox="0 0 79.375 79.375" xmlns="http://www.w3.org/2000/svg">
 <path id="a" d="m30.12 4.1246c-2.4962 2.2387-2.5667 5.9767-3.504 9.0117-1.0194 2.0014-0.1711 8.3994-3.7689 5.9417-2.8578-0.92341-4.6216-7.4478-7.8444-4.4322-2.1191 1.873-2.2061 5.0173-0.17936 7.0975 1.3182 2.1113 8.8235 2.4483 5.7759 5.5465-4.2424 2.1643-8.5681 4.8553-10.593 9.3907-1.6904 3.1696-2.9596 7.4508-0.82341 10.72 2.7742 2.0108 6.8456 2.1738 9.9236 2.612 2.7746-0.63572 6.4599-0.06846 4.0797 3.4641-1.4228 3.6757-6.4403 1.3492-9.3533 2.8541-3.139 1.0601-8.4426 0.3581-9.2359 4.5336-0.85038 3.9467 5.0382 3.23 7.2481 1.946 2.7033-1.0468 5.79-2.549 8.6943-1.5804 2.3076 2.74-1.1212 6.5011-0.24039 9.7387 1.0478 2.4065 3.2292 6.8481 5.5565 2.8025 1.3216-1.9315 3.4618-3.5606 3.1199-6.2084 0.33073-2.5321-0.21729-5.4639 1.5009-7.5531 1.6057-0.98794 3.6829-0.43876 5.3806-1.3727 1.4958-0.61828 3.2768-0.79766 4.5419-1.8075 0.49294-2.8825-3.1348-2.4098-4.9916-2.0662-2.0738 0.36182-5.1626 0.51144-5.803-2.0229-1.61-2.8203-0.88451-6.1828 2.4728-7.083 2.8868-1.9185 6.5385-3.0237 8.3378-6.1987 1.9935-2.6804 4.342-5.6048 3.7799-9.1943 0.15209-2.8712-2.5245-4.4271-4.9901-4.9045-2.0935-0.1075-4.2271-2.1213-1.0457-3.0925 3.3763-1.7016 6.7665-3.4193 10.026-5.3213 2.9815-3.6142-1.9076-5.7223-4.6606-3.6083-1.8724 2.9454-5.2885 4.4669-8.5787 5.2627-2.2291-2.2464 0.01795-6.9546-0.76267-10.153-0.11211-2.3081-1.1094-5.1825-4.0624-4.3225zm33.734 42.438c-0.82584 5.8856-1.5834 11.805-1.9703 17.725 1.0668 4.5814 6.2886 0.11269 6.2432-2.7776 1.2687-6.2307 2.7998-12.42 3.9525-18.667 0.50404-4.2513 0.13757-8.7058 2.0456-12.667 2.5356-3.6099-2.0837-7.0453-4.7767-3.7689-2.4845 2.8247-6.654 2.691-9.7337 4.73-2.6893 1.9976-3.0725-1.3532-2.4845-3.2642 1.0426-2.4242-1.5799-6.9415-4.0852-4.297-2.1598 1.874-1.8151 5.056-3.2605 7.3887-1.9474 9.5148-3.8247 19.047-5.925 28.525-1.7836 3.256 2.0145 8.5351 4.6689 4.0139 3.1562-3.3762 3.3065-8.216 5.1773-12.241 2.282-2.5791 5.8296-3.6788 9.0416-4.6658l0.41307-0.05743zm-31.38-18.841c2.4797-0.3694 7.3723 1.9056 4.9674 4.5743-5.9144 1.2785-11.852 2.4637-17.806 3.5514-2.8294-2.0897 1.0428-4.2781 3.0339-5.1066 2.0441-1.3241 4.1095-2.7332 6.649-2.8129 1.0441-0.14925 2.0999-0.23418 3.1552-0.20619zm32.481 6.4484c4.6481 2.572 0.23825 7.5246-4.0204 8.6844-2.3685 1.3862-7.6696 2.1012-5.7341-2.2121 0.78044-3.1594 4.2952-5.0165 7.2076-5.8773 0.84432-0.21761 1.6966-0.78745 2.547-0.59496zm-31.38 1.9837c4.9819-0.84334 1.7509 5.7667-1.5843 5.2551-3.7738 1.0239-7.5546 2.7259-11.515 2.4538-3.184 0.26917-3.5374-3.0068-0.71693-3.6896 4.3333-2.1208 9.0453-3.3758 13.817-4.0193z"/>
</svg>
